<?xml version="1.0" standalone="no"?>
<!DOCTYPE svg PUBLIC "-//W3C//DTD SVG 20010904//EN"
 "http://www.w3.org/TR/2001/REC-SVG-20010904/DTD/svg10.dtd">
<svg version="1.0" xmlns="http://www.w3.org/2000/svg"
 width="512.000000pt" height="512.000000pt" viewBox="0 0 512.000000 512.000000"
 preserveAspectRatio="xMidYMid meet">
<metadata>
Created by potrace 1.14, written by Peter Selinger 2001-2017
</metadata>
<g transform="translate(0.000000,512.000000) scale(0.100000,-0.100000)"
fill="#000000" stroke="none">
<path d="M1581 3875 c-112 -20 -254 -69 -371 -127 l-105 -53 -45 -87 c-40 -78
-48 -88 -73 -88 -28 0 -42 -24 -114 -190 -8 -19 -21 -47 -29 -62 -8 -15 -15
-30 -15 -33 0 -2 -9 -26 -20 -52 -124 -284 -287 -771 -324 -968 -46 -243 -55
-311 -59 -460 -7 -279 55 -485 181 -595 52 -46 138 -83 203 -88 47 -3 61 0 93
22 21 14 40 26 43 26 10 0 127 93 178 140 26 25 116 113 200 195 166 165 267
240 373 276 l68 24 785 0 c432 0 799 -3 815 -6 133 -29 235 -100 452 -315 193
-191 258 -248 363 -317 74 -48 76 -49 137 -43 200 18 343 208 372 497 11 113
5 312 -13 404 -2 11 -7 43 -10 70 -18 132 -79 377 -145 581 -39 120 -131 372
-156 429 -8 17 -43 98 -78 180 -121 280 -123 285 -151 285 -28 0 -34 8 -88
110 -34 64 -35 66 -139 118 -305 154 -596 180 -749 67 l-34 -25 -566 0 -566 0
-34 25 c-86 63 -231 86 -379 60z m1077 -274 c73 -38 112 -104 112 -191 0 -56
-18 -100 -59 -143 -125 -135 -356 -46 -362 140 -5 162 164 268 309 194z"/>
</g>
</svg>
